<svg width="32" height="32" viewBox="0 0 32 32" fill="none" xmlns="http://www.w3.org/2000/svg">
<path fill-rule="evenodd" clip-rule="evenodd" d="M12.9787 3.59866C14.9722 3.19024 17.0278 3.19024 19.0213 3.59866C19.884 3.77466 20.548 4.46533 20.6907 5.33466L20.764 5.77333C21.3706 9.45518 21.3706 13.2115 20.764 16.8933L20.6907 17.3333C20.6206 17.7574 20.4236 18.1503 20.1255 18.46C19.8274 18.7697 19.4424 18.9817 19.0213 19.068C17.0278 19.4764 14.9722 19.4764 12.9787 19.068C12.5571 18.9822 12.1715 18.7704 11.8729 18.4607C11.5744 18.1509 11.3769 17.7578 11.3067 17.3333L11.2347 16.896C10.6278 13.2137 10.6278 9.45694 11.2347 5.77466L11.308 5.33333C11.3784 4.9093 11.5758 4.5166 11.8741 4.20712C12.1723 3.89763 12.5575 3.68594 12.9787 3.6M18.62 5.56C16.8913 5.20581 15.1087 5.20581 13.38 5.56C13.3554 5.56473 13.3328 5.57682 13.3151 5.59468C13.2975 5.61253 13.2857 5.63531 13.2813 5.66L13.2093 6.1C12.638 9.56684 12.638 13.1038 13.2093 16.5707L13.2813 17.0093C13.2855 17.0343 13.2972 17.0573 13.3148 17.0754C13.3324 17.0936 13.3552 17.1058 13.38 17.1107C15.1087 17.4649 16.8913 17.4649 18.62 17.1107C18.6448 17.1058 18.6676 17.0936 18.6852 17.0754C18.7028 17.0573 18.7145 17.0343 18.7187 17.0093L18.7907 16.5693C19.3613 13.1027 19.3613 9.56666 18.7907 6.09866L18.7187 5.66C18.7145 5.63506 18.7028 5.61199 18.6852 5.59388C18.6676 5.57577 18.6448 5.56482 18.62 5.56Z" fill="#E9EBED"/>
<path d="M6.52666 15.0093C6.65677 14.9909 6.78923 14.9982 6.91649 15.031C7.04375 15.0638 7.1633 15.1213 7.2683 15.2003C7.37331 15.2793 7.46172 15.3783 7.52847 15.4914C7.59522 15.6046 7.63901 15.7299 7.65733 15.86L8.25733 20.1C8.42 21.244 9.328 22.14 10.4747 22.2867C14.144 22.7547 17.856 22.7547 21.5253 22.2867C22.0834 22.2154 22.6027 21.9628 23.0033 21.5678C23.4039 21.1727 23.6636 20.657 23.7427 20.1L24.3427 15.86C24.3798 15.5973 24.5198 15.36 24.7318 15.2005C24.8368 15.1215 24.9563 15.064 25.0836 15.0312C25.2108 14.9984 25.3432 14.9909 25.4733 15.0093C25.6034 15.0277 25.7286 15.0715 25.8418 15.1383C25.9549 15.2051 26.0538 15.2935 26.1328 15.3985C26.2118 15.5035 26.2694 15.623 26.3022 15.7502C26.335 15.8775 26.3424 16.0099 26.324 16.14L25.7227 20.38C25.5823 21.371 25.1204 22.2885 24.4078 22.9915C23.6952 23.6944 22.7715 24.1438 21.7787 24.2707C20.192 24.4733 18.596 24.5907 17 24.6267V30C17 30.2652 16.8946 30.5196 16.7071 30.7071C16.5196 30.8946 16.2652 31 16 31C15.7348 31 15.4804 30.8946 15.2929 30.7071C15.1054 30.5196 15 30.2652 15 30V24.6267C13.402 24.5918 11.8069 24.473 10.2213 24.2707C9.22847 24.1438 8.30476 23.6944 7.5922 22.9915C6.87964 22.2885 6.41768 21.371 6.27733 20.38L5.67733 16.14C5.64004 15.8774 5.70857 15.6108 5.86785 15.3988C6.02712 15.1867 6.2641 15.0467 6.52666 15.0093Z" fill="#E9EBED"/>
</svg>
