<svg width="20" height="20" viewBox="0 0 20 20" fill="none" xmlns="http://www.w3.org/2000/svg">
<path fill-rule="evenodd" clip-rule="evenodd" d="M2.33667 6.96085C2.10334 9.13001 2.11334 11.6317 2.43834 13.7925C2.52557 14.3732 2.80573 14.9077 3.23369 15.3098C3.66164 15.7119 4.21249 15.9582 4.7975 16.0092L6.05584 16.1175C8.68084 16.3458 11.3192 16.3458 13.9442 16.1175L15.2025 16.0092C15.7875 15.9582 16.3384 15.7119 16.7663 15.3098C17.1943 14.9077 17.4744 14.3732 17.5617 13.7925C17.8867 11.6317 17.8967 9.13001 17.6633 6.96085C17.6332 6.70924 17.5993 6.4581 17.5617 6.20751C17.4744 5.6268 17.1943 5.09235 16.7663 4.69025C16.3384 4.28814 15.7875 4.04178 15.2025 3.99085L13.9442 3.88251C11.32 3.6544 8.68089 3.6544 6.05667 3.88251L4.79834 3.99085C4.21317 4.0416 3.66214 4.28788 3.23401 4.69001C2.80589 5.09213 2.52561 5.62667 2.43834 6.20751C2.40077 6.45811 2.36687 6.70925 2.33667 6.96085ZM6.16417 5.12751C8.7163 4.90566 11.2829 4.90566 13.835 5.12751L15.0933 5.23668C15.3989 5.26335 15.6865 5.39201 15.9101 5.60195C16.1336 5.8119 16.2801 6.09094 16.3258 6.39418L16.3542 6.58835L11.72 9.16335C11.1939 9.45565 10.6019 9.60905 10 9.60905C9.39811 9.60905 8.80615 9.45565 8.28 9.16335L3.64584 6.58835L3.67417 6.39418C3.71963 6.09095 3.86586 5.81185 4.0893 5.60186C4.31274 5.39188 4.60037 5.26324 4.90584 5.23668L6.16417 5.12751ZM16.5067 7.93335C16.6686 9.82474 16.6079 11.7286 16.3258 13.6058C16.2804 13.9091 16.1341 14.1882 15.9107 14.3982C15.6873 14.6081 15.3996 14.7368 15.0942 14.7633L13.8358 14.8725C11.2834 15.0944 8.71658 15.0944 6.16417 14.8725L4.90584 14.7633C4.60037 14.7368 4.31274 14.6081 4.0893 14.3982C3.86586 14.1882 3.71963 13.9091 3.67417 13.6058C3.3918 11.7286 3.33082 9.82477 3.4925 7.93335L7.6725 10.2558C8.38435 10.6513 9.18525 10.8589 9.99959 10.8589C10.8139 10.8589 11.6148 10.6513 12.3267 10.2558L16.5067 7.93335Z" fill="currentColor"/>
</svg>
