<svg width="20" height="20" viewBox="0 0 20 20" fill="none" xmlns="http://www.w3.org/2000/svg">
<path fill-rule="evenodd" clip-rule="evenodd" d="M12.5183 2.78581C12.9417 2.71331 13.4158 2.68914 13.8625 2.76497C14.6581 2.89936 15.3953 3.26883 15.9792 3.82581C16.3592 3.83414 16.7333 3.75914 17.0642 3.65247C17.3839 3.5482 17.6909 3.40814 17.9792 3.23497L17.9867 3.22997C18.1067 3.15002 18.2506 3.11402 18.3941 3.12807C18.5377 3.14213 18.6719 3.20538 18.7741 3.30709C18.8763 3.40881 18.9402 3.54274 18.9549 3.68618C18.9697 3.82963 18.9344 3.97375 18.855 4.09414C18.6825 4.35664 18.4417 4.82497 18.1725 5.34997L18.0433 5.60081C17.8892 5.90081 17.7308 6.20414 17.5833 6.46414C17.4908 6.62747 17.3917 6.79331 17.2917 6.93664V7.16497C17.3019 8.5305 17.0401 9.8844 16.5215 11.1477C16.0028 12.4109 15.2378 13.5582 14.271 14.5226C13.3042 15.487 12.155 16.2492 10.8904 16.7647C9.62589 17.2802 8.27134 17.5386 6.90584 17.525C4.92704 17.5268 2.98989 16.9567 1.32751 15.8833C1.2082 15.8066 1.1185 15.6917 1.07316 15.5573C1.02781 15.423 1.02951 15.2772 1.07797 15.1439C1.12644 15.0106 1.21878 14.8978 1.33985 14.8239C1.46091 14.7501 1.60349 14.7196 1.74417 14.7375C2.8924 14.8747 4.05616 14.6895 5.10501 14.2025C4.59328 13.9698 4.13561 13.6332 3.76115 13.214C3.38668 12.7947 3.10363 12.3021 2.93001 11.7675C2.89693 11.6651 2.89082 11.556 2.91228 11.4506C2.93374 11.3452 2.98204 11.2471 3.05251 11.1658L3.06084 11.1575C2.63793 10.7807 2.29898 10.3192 2.06597 9.80294C1.83297 9.28669 1.71112 8.7272 1.70834 8.16081V8.11747C1.70828 7.98027 1.75337 7.84685 1.83665 7.73782C1.91994 7.62878 2.03679 7.55018 2.16917 7.51414C1.88699 6.95109 1.74058 6.32978 1.74167 5.69997C1.7412 4.98595 1.92797 4.28428 2.28334 3.66497C2.33383 3.57706 2.40495 3.50275 2.49056 3.44844C2.57617 3.39414 2.67371 3.36148 2.77476 3.35328C2.87581 3.34508 2.97733 3.36158 3.07058 3.40136C3.16383 3.44115 3.246 3.50302 3.31001 3.58164C4.76767 5.37742 6.85599 6.54886 9.14834 6.85664C9.12844 6.10679 9.3176 5.3662 9.69466 4.71775C10.0717 4.0693 10.6218 3.53857 11.2833 3.18497C11.6183 3.00664 12.0617 2.86414 12.5183 2.78581ZM3.11834 9.07581C3.28016 9.53124 3.55746 9.93685 3.92308 10.253C4.28871 10.5691 4.73014 10.7848 5.20417 10.8791C5.34075 10.9063 5.46432 10.9784 5.55529 11.0838C5.64626 11.1893 5.6994 11.3221 5.70629 11.4612C5.71319 11.6002 5.67343 11.7377 5.59333 11.8516C5.51324 11.9655 5.39739 12.0494 5.26417 12.09C5.03751 12.1591 4.80501 12.2066 4.56917 12.2341C4.82521 12.5644 5.15197 12.8332 5.52546 13.0206C5.89895 13.2081 6.30969 13.3095 6.72751 13.3175C6.85639 13.3199 6.98136 13.3621 7.08531 13.4383C7.18926 13.5146 7.2671 13.6211 7.30817 13.7433C7.34923 13.8654 7.35151 13.9973 7.31469 14.1209C7.27787 14.2444 7.20376 14.3535 7.10251 14.4333C6.23355 15.117 5.22373 15.5994 4.14584 15.8458C5.03823 16.1314 5.96969 16.2762 6.90667 16.275H6.91417C8.11425 16.2877 9.30484 16.0612 10.4164 15.6086C11.5279 15.156 12.5381 14.4864 13.3879 13.6389C14.2377 12.7915 14.91 11.7831 15.3657 10.6728C15.8214 9.56255 16.0512 8.37258 16.0417 7.17247V6.72664C16.0415 6.57488 16.0966 6.42826 16.1967 6.31414C16.255 6.24831 16.355 6.09664 16.4967 5.84747C16.63 5.61247 16.7783 5.32914 16.9325 5.02997L16.96 4.97497C16.5247 5.07293 16.0765 5.10023 15.6325 5.05581C15.4824 5.03945 15.3432 4.9693 15.2408 4.85831C14.8218 4.40387 14.2637 4.10139 13.6542 3.99831C13.3468 3.95482 13.0343 3.96186 12.7292 4.01914C12.4317 4.06544 12.143 4.15617 11.8725 4.28831C11.3272 4.57964 10.8941 5.04374 10.641 5.6078C10.3879 6.17186 10.3293 6.80397 10.4742 7.40497C10.497 7.49948 10.4974 7.598 10.4755 7.69271C10.4535 7.78742 10.4098 7.8757 10.3477 7.95054C10.2857 8.02538 10.207 8.08471 10.118 8.12382C10.029 8.16292 9.9321 8.18072 9.83501 8.17581C7.27466 8.0463 4.85406 6.96892 3.04417 5.15331C3.00901 5.33368 2.99143 5.51704 2.99167 5.70081V5.70247C2.99074 6.16143 3.10331 6.61349 3.31936 7.01841C3.53542 7.42333 3.84825 7.76854 4.23001 8.02331C4.34211 8.09876 4.42674 8.20851 4.47122 8.33612C4.51569 8.46372 4.5176 8.6023 4.47668 8.73109C4.43575 8.85988 4.35419 8.97193 4.24421 9.05045C4.13424 9.12898 4.00177 9.16974 3.86667 9.16664C3.61518 9.15967 3.3649 9.12898 3.11917 9.07497" fill="currentColor"/>
</svg>
