<svg width="18" height="18" viewBox="0 0 18 18" fill="none" xmlns="http://www.w3.org/2000/svg">
<path fill-rule="evenodd" clip-rule="evenodd" d="M10.248 4.75725C10.248 5.06775 10.5 5.31975 10.8105 5.31975H12.6803V7.1895C12.6803 7.33868 12.7395 7.48176 12.845 7.58725C12.9505 7.69273 13.0936 7.752 13.2428 7.752C13.3919 7.752 13.535 7.69273 13.6405 7.58725C13.746 7.48176 13.8053 7.33868 13.8053 7.1895V4.75725C13.8053 4.60806 13.746 4.46499 13.6405 4.3595C13.535 4.25401 13.3919 4.19475 13.2428 4.19475H10.8105C10.6613 4.19475 10.5183 4.25401 10.4128 4.3595C10.3073 4.46499 10.248 4.60806 10.248 4.75725ZM13.2428 10.248C13.0936 10.248 12.9505 10.3073 12.845 10.4128C12.7395 10.5182 12.6803 10.6613 12.6803 10.8105V12.6802H10.8105C10.6613 12.6802 10.5183 12.7395 10.4128 12.845C10.3073 12.9505 10.248 13.0936 10.248 13.2427C10.248 13.3919 10.3073 13.535 10.4128 13.6405C10.5183 13.746 10.6613 13.8052 10.8105 13.8052H13.2428C13.3919 13.8052 13.535 13.746 13.6405 13.6405C13.746 13.535 13.8053 13.3919 13.8053 13.2427V10.8105C13.8053 10.6613 13.746 10.5182 13.6405 10.4128C13.535 10.3073 13.3919 10.248 13.2428 10.248ZM4.75726 10.248C4.90645 10.248 5.04952 10.3073 5.15501 10.4128C5.2605 10.5182 5.31976 10.6613 5.31976 10.8105V12.6802H7.18951C7.3387 12.6802 7.48177 12.7395 7.58726 12.845C7.69275 12.9505 7.75201 13.0936 7.75201 13.2427C7.75201 13.3919 7.69275 13.535 7.58726 13.6405C7.48177 13.746 7.3387 13.8052 7.18951 13.8052H4.75726C4.60808 13.8052 4.465 13.746 4.35952 13.6405C4.25403 13.535 4.19476 13.3919 4.19476 13.2427V10.8105C4.19476 10.6613 4.25403 10.5182 4.35952 10.4128C4.465 10.3073 4.60808 10.248 4.75726 10.248ZM7.75201 4.75725C7.75201 4.90643 7.69275 5.04951 7.58726 5.155C7.48177 5.26048 7.3387 5.31975 7.18951 5.31975H5.31976V7.1895C5.31976 7.33868 5.2605 7.48176 5.15501 7.58725C5.04952 7.69273 4.90645 7.752 4.75726 7.752C4.60808 7.752 4.465 7.69273 4.35952 7.58725C4.25403 7.48176 4.19476 7.33868 4.19476 7.1895V4.75725C4.19476 4.60806 4.25403 4.46499 4.35952 4.3595C4.465 4.25401 4.60808 4.19475 4.75726 4.19475H7.18951C7.3387 4.19475 7.48177 4.25401 7.58726 4.3595C7.69275 4.46499 7.75201 4.60806 7.75201 4.75725Z" fill="#CACDD2"/>
</svg>
