<svg width="18" height="18" viewBox="0 0 18 18" fill="none" xmlns="http://www.w3.org/2000/svg">
<path fill-rule="evenodd" clip-rule="evenodd" d="M2.4375 7.5225C2.4375 5.4975 4.215 3.9375 6.3 3.9375C7.37475 3.9375 8.32125 4.4415 9 5.094C9.67875 4.4415 10.6245 3.9375 11.7 3.9375C13.785 3.9375 15.5625 5.4975 15.5625 7.5225C15.5625 8.91 14.9707 10.1295 14.151 11.1615C13.3335 12.1905 12.2625 13.0642 11.238 13.7745C10.8457 14.046 10.4505 14.2957 10.0875 14.4802C9.74775 14.6535 9.35625 14.8125 9 14.8125C8.64375 14.8125 8.253 14.6535 7.9125 14.4802C7.5143 14.2703 7.13024 14.0345 6.76275 13.7745C5.7375 13.0642 4.66725 12.1905 3.849 11.1615C3.02925 10.1295 2.4375 8.91 2.4375 7.5225ZM6.3 5.0625C4.74 5.0625 3.5625 6.21 3.5625 7.5225C3.5625 8.57475 4.0095 9.555 4.7295 10.461C5.451 11.3685 6.42225 12.1702 7.40325 12.8497C7.7745 13.107 8.12325 13.3253 8.42325 13.4783C8.74425 13.6418 8.93025 13.6875 9 13.6875C9.06975 13.6875 9.25575 13.6417 9.5775 13.4775C9.93069 13.2905 10.2714 13.0808 10.5975 12.8497C11.5778 12.1702 12.549 11.3692 13.2705 10.461C13.9905 9.555 14.4375 8.57475 14.4375 7.5225C14.4375 6.21 13.26 5.0625 11.7 5.0625C10.8045 5.0625 9.9675 5.59725 9.44625 6.27675C9.39373 6.3452 9.32616 6.40064 9.24878 6.4388C9.1714 6.47696 9.08628 6.49681 9 6.49681C8.91372 6.49681 8.8286 6.47696 8.75122 6.4388C8.67384 6.40064 8.60627 6.3452 8.55375 6.27675C8.0325 5.59725 7.19625 5.0625 6.3 5.0625Z" fill="#CACDD2"/>
</svg>
