<svg width="32" height="32" viewBox="0 0 32 32" fill="none" xmlns="http://www.w3.org/2000/svg">
<path fill-rule="evenodd" clip-rule="evenodd" d="M20.1827 4.62667C19.9952 4.4394 19.741 4.33421 19.476 4.33421C19.211 4.33421 18.9568 4.4394 18.7693 4.62667L6.51199 16.8827C6.38668 17.0081 6.29695 17.1645 6.25199 17.336L4.91866 22.4427C4.87465 22.6114 4.87553 22.7888 4.92123 22.9571C4.96694 23.1254 5.05586 23.2788 5.17918 23.4021C5.30251 23.5255 5.45594 23.6144 5.62425 23.6601C5.79256 23.7058 5.9699 23.7067 6.13866 23.6627L11.2427 22.3293C11.4148 22.2842 11.5717 22.194 11.6973 22.068L23.9533 9.812C24.1406 9.6245 24.2458 9.37033 24.2458 9.10533C24.2458 8.84033 24.1406 8.58617 23.9533 8.39867L20.1827 4.62667ZM8.11733 18.1053L19.476 6.748L21.832 9.104L10.4747 20.4627L7.28399 21.296L8.11733 18.1053Z" fill="#CACDD2"/>
<path d="M5.33334 25.6667C5.06813 25.6667 4.81377 25.772 4.62624 25.9596C4.4387 26.1471 4.33334 26.4014 4.33334 26.6667C4.33334 26.9319 4.4387 27.1862 4.62624 27.3738C4.81377 27.5613 5.06813 27.6667 5.33334 27.6667H25.3333C25.5986 27.6667 25.8529 27.5613 26.0405 27.3738C26.228 27.1862 26.3333 26.9319 26.3333 26.6667C26.3333 26.4014 26.228 26.1471 26.0405 25.9596C25.8529 25.772 25.5986 25.6667 25.3333 25.6667H5.33334Z" fill="#CACDD2"/>
</svg>
