<svg width="20" height="20" viewBox="0 0 20 20" fill="none" xmlns="http://www.w3.org/2000/svg">
<path fill-rule="evenodd" clip-rule="evenodd" d="M8.30001 3.33668C9.31877 4.61457 10.2276 5.97637 11.0167 7.40751C12.4356 6.87688 13.7845 6.17503 15.0333 5.31751C14.3907 4.62493 13.6119 4.07266 12.7458 3.69536C11.8796 3.31806 10.9448 3.12389 10 3.12501C9.41335 3.12501 8.84418 3.19835 8.30001 3.33668ZM15.8 6.30751C14.4936 7.21133 13.0835 7.95525 11.6 8.52335C11.8375 9.00335 12.0625 9.49168 12.2733 9.98668C13.807 9.76048 15.3704 9.84465 16.8708 10.2342C16.9208 8.84667 16.5473 7.47766 15.8 6.30751ZM16.7142 11.4858C15.4266 11.1273 14.0813 11.0242 12.7542 11.1825C13.2908 12.6127 13.7124 14.0835 14.015 15.5808C15.3872 14.5938 16.3481 13.1361 16.7142 11.4858ZM12.8708 16.2483C12.5637 14.5971 12.1057 12.9775 11.5025 11.41C9.15678 11.9925 7.09277 13.3861 5.67585 15.3442C6.89823 16.3367 8.42545 16.8773 10 16.875C10.9909 16.876 11.9703 16.6625 12.8708 16.2492M4.77168 14.465C6.32095 12.3946 8.52326 10.9072 11.0225 10.2433C10.8292 9.80224 10.6244 9.36626 10.4083 8.93585C8.05521 9.66738 5.58675 9.95588 3.12835 9.78668C3.07248 11.4964 3.65874 13.1659 4.77168 14.465ZM3.28001 8.54335C5.48319 8.68681 7.69435 8.43852 9.81085 7.81001C9.01254 6.39002 8.09064 5.04314 7.05585 3.78501C6.10448 4.23667 5.26934 4.90046 4.61463 5.72536C3.95991 6.55025 3.50306 7.51428 3.27918 8.54335M7.00418 2.44335C7.95784 2.06607 8.97444 1.87321 10 1.87501C11.246 1.87409 12.4754 2.16018 13.5929 2.71107C14.7105 3.26197 15.6861 4.06288 16.4442 5.05168C17.5363 6.46981 18.1275 8.21006 18.125 10C18.1247 11.4648 17.7286 12.9022 16.9788 14.1605C16.2289 15.4187 15.1531 16.451 13.865 17.1483C12.6783 17.7911 11.3496 18.1269 10 18.125C7.92289 18.1277 5.92409 17.3324 4.41668 15.9033C3.4944 15.0333 2.78912 13.9591 2.35752 12.7669C1.92593 11.5748 1.78008 10.298 1.93168 9.03918C2.10536 7.58512 2.6684 6.20493 3.56136 5.04429C4.45431 3.88365 5.64406 2.98563 7.00501 2.44501" fill="currentColor"/>
</svg>
