<svg width="38" height="38" viewBox="0 0 38 38" fill="none" xmlns="http://www.w3.org/2000/svg">
<path fill-rule="evenodd" clip-rule="evenodd" d="M21.5555 3.6575C21.7697 3.74877 21.9523 3.90099 22.0807 4.09523C22.2091 4.28948 22.2775 4.51717 22.2775 4.75V15.8302H28.5C28.7078 15.83 28.9119 15.8843 29.0921 15.9878C29.2723 16.0912 29.4222 16.2401 29.5269 16.4195C29.6315 16.599 29.6872 16.8028 29.6885 17.0106C29.6897 17.2183 29.6364 17.4228 29.5339 17.6035L28.7549 18.981C25.8005 24.2103 22.0325 28.936 17.5924 32.9808L16.3321 34.1288C16.1619 34.2838 15.9503 34.386 15.7231 34.4229C15.4958 34.4598 15.2628 34.4299 15.0522 34.3368C14.8417 34.2437 14.6627 34.0914 14.5372 33.8985C14.4116 33.7055 14.3449 33.4802 14.345 33.25V22.2633H7.91668C7.70915 22.2633 7.50524 22.2089 7.32527 22.1056C7.1453 22.0022 6.99556 21.8535 6.89096 21.6743C6.78636 21.495 6.73056 21.2915 6.72912 21.084C6.72769 20.8765 6.78066 20.6722 6.88276 20.4915C9.66743 15.3434 13.2326 10.6577 17.4515 6.60092L20.2667 3.89342C20.4347 3.732 20.6464 3.62357 20.8756 3.58162C21.1048 3.53967 21.3412 3.56606 21.5555 3.6575ZM9.94968 19.8883H15.5325C15.8475 19.8883 16.1495 20.0134 16.3722 20.2361C16.5949 20.4588 16.72 20.7608 16.72 21.0758V30.5488C20.55 26.9295 23.8319 22.7712 26.4623 18.2052H21.09C20.7751 18.2052 20.473 18.0801 20.2503 17.8574C20.0276 17.6347 19.9025 17.3326 19.9025 17.0177V7.53983L19.0982 8.3125C15.5368 11.737 12.4579 15.6316 9.94968 19.8883Z" fill="#CACDD2"/>
</svg>
