<svg width="32" height="32" viewBox="0 0 32 32" fill="none" xmlns="http://www.w3.org/2000/svg">
<path fill-rule="evenodd" clip-rule="evenodd" d="M8.71333 4.33333C8.32913 4.33346 7.9509 4.42845 7.61224 4.60988C7.27357 4.79131 6.98495 5.05355 6.77199 5.37333L1.98666 12.5493C1.69466 12.9893 1.65999 13.552 1.89599 14.024C4.51478 19.2614 8.15408 23.9225 12.6 27.7333L14.9333 29.7347C15.2306 29.9895 15.6092 30.1295 16.0007 30.1295C16.3922 30.1295 16.7707 29.9895 17.068 29.7347L19.4013 27.7347C23.8479 23.9236 27.4877 19.262 30.1067 14.024C30.3427 13.552 30.3067 12.9893 30.0147 12.5493L25.2267 5.37333C25.0137 5.05399 24.7252 4.79212 24.3868 4.61094C24.0484 4.42976 23.6705 4.33487 23.2867 4.33467L8.71333 4.33333ZM8.43599 6.48133C8.46648 6.43576 8.50774 6.3984 8.55612 6.37259C8.60449 6.34677 8.65849 6.33329 8.71333 6.33333H11.8333L9.27999 12.4613C9.2215 12.6015 9.17685 12.7471 9.14666 12.896C8.20765 12.8259 7.26976 12.7414 6.33333 12.6427L4.45999 12.4467L8.43599 6.48133ZM4.37333 14.448C6.76587 18.8374 9.92401 22.7636 13.6987 26.0413L9.53199 14.9293C8.39519 14.8512 7.25989 14.7526 6.12666 14.6333L4.37333 14.448ZM11.7147 15.0533L16 26.4853L20.2867 15.0533C17.4304 15.1832 14.5696 15.1832 11.7133 15.0533M22.4693 14.9293L18.3027 26.0413C22.0773 22.7636 25.2355 18.8374 27.628 14.448L25.8747 14.6333C24.7413 14.752 23.6067 14.8507 22.4693 14.9293ZM27.54 12.4467L25.6653 12.644C24.7289 12.7428 23.791 12.8272 22.852 12.8973C22.8223 12.748 22.7781 12.602 22.72 12.4613L20.1667 6.33333H23.2867C23.3415 6.33329 23.3955 6.34677 23.4439 6.37259C23.4922 6.3984 23.5335 6.43576 23.564 6.48133L27.54 12.4467ZM20.7893 13.0267C17.5987 13.192 14.4027 13.192 11.2107 13.0267L14 6.33333H18L20.7893 13.0267Z" fill="#E9EBED"/>
</svg>
