<svg width="32" height="32" viewBox="0 0 32 32" fill="none" xmlns="http://www.w3.org/2000/svg">
<path d="M8 10C8 9.64638 8.14048 9.30724 8.39052 9.05719C8.64057 8.80714 8.97971 8.66667 9.33333 8.66667C9.68696 8.66667 10.0261 8.80714 10.2761 9.05719C10.5262 9.30724 10.6667 9.64638 10.6667 10C10.6667 10.3536 10.5262 10.6928 10.2761 10.9428C10.0261 11.1929 9.68696 11.3333 9.33333 11.3333C8.97971 11.3333 8.64057 11.1929 8.39052 10.9428C8.14048 10.6928 8 10.3536 8 10ZM12 10C12 9.64638 12.1405 9.30724 12.3905 9.05719C12.6406 8.80714 12.9797 8.66667 13.3333 8.66667C13.687 8.66667 14.0261 8.80714 14.2761 9.05719C14.5262 9.30724 14.6667 9.64638 14.6667 10C14.6667 10.3536 14.5262 10.6928 14.2761 10.9428C14.0261 11.1929 13.687 11.3333 13.3333 11.3333C12.9797 11.3333 12.6406 11.1929 12.3905 10.9428C12.1405 10.6928 12 10.3536 12 10ZM9.33333 18C8.97971 18 8.64057 18.1405 8.39052 18.3905C8.14048 18.6406 8 18.9797 8 19.3333C8 19.687 8.14048 20.0261 8.39052 20.2761C8.64057 20.5262 8.97971 20.6667 9.33333 20.6667C9.68696 20.6667 10.0261 20.5262 10.2761 20.2761C10.5262 20.0261 10.6667 19.687 10.6667 19.3333C10.6667 18.9797 10.5262 18.6406 10.2761 18.3905C10.0261 18.1405 9.68696 18 9.33333 18ZM13.3333 18C12.9797 18 12.6406 18.1405 12.3905 18.3905C12.1405 18.6406 12 18.9797 12 19.3333C12 19.687 12.1405 20.0261 12.3905 20.2761C12.6406 20.5262 12.9797 20.6667 13.3333 20.6667C13.687 20.6667 14.0261 20.5262 14.2761 20.2761C14.5262 20.0261 14.6667 19.687 14.6667 19.3333C14.6667 18.9797 14.5262 18.6406 14.2761 18.3905C14.0261 18.1405 13.687 18 13.3333 18Z" fill="#E9EBED"/>
<path fill-rule="evenodd" clip-rule="evenodd" d="M7.92933 4.33333C6.95687 4.33333 6.02424 4.71964 5.33661 5.40727C4.64898 6.09491 4.26267 7.02754 4.26267 8V12C4.26267 13.0507 4.70533 13.9987 5.41333 14.6667C5.04954 15.009 4.75974 15.4222 4.56184 15.8808C4.36394 16.3395 4.26212 16.8338 4.26267 17.3333V21.3333C4.26267 22.3058 4.64898 23.2384 5.33661 23.9261C6.02424 24.6137 6.95687 25 7.92933 25H15V27H6.66667C6.40145 27 6.1471 27.1054 5.95956 27.2929C5.77202 27.4804 5.66667 27.7348 5.66667 28C5.66667 28.2652 5.77202 28.5196 5.95956 28.7071C6.1471 28.8946 6.40145 29 6.66667 29H25.3333C25.5985 29 25.8529 28.8946 26.0404 28.7071C26.228 28.5196 26.3333 28.2652 26.3333 28C26.3333 27.7348 26.228 27.4804 26.0404 27.2929C25.8529 27.1054 25.5985 27 25.3333 27H17V25H23.9293C24.4108 25 24.8876 24.9052 25.3325 24.7209C25.7774 24.5366 26.1816 24.2665 26.5221 23.9261C26.8625 23.5856 27.1326 23.1814 27.3169 22.7365C27.5012 22.2916 27.596 21.8148 27.596 21.3333V17.3333C27.596 16.2827 27.1547 15.3347 26.4467 14.6667C26.8102 14.3242 27.0997 13.9109 27.2973 13.4523C27.495 12.9937 27.5966 12.4994 27.596 12V8C27.596 7.51849 27.5012 7.04169 27.3169 6.59683C27.1326 6.15197 26.8625 5.74776 26.5221 5.40727C26.1816 5.06679 25.7774 4.79671 25.3325 4.61244C24.8876 4.42817 24.4108 4.33333 23.9293 4.33333H7.92933ZM7.92933 13.6667H23.9293C24.8493 13.6667 25.596 12.92 25.596 12V8C25.596 7.08 24.8493 6.33333 23.9293 6.33333H7.92933C7.00933 6.33333 6.26267 7.08 6.26267 8V12C6.26267 12.92 7.00933 13.6667 7.92933 13.6667ZM7.92933 15.6667C7.00933 15.6667 6.26267 16.4133 6.26267 17.3333V21.3333C6.26267 22.2533 7.00933 23 7.92933 23H23.9293C24.8493 23 25.596 22.2533 25.596 21.3333V17.3333C25.596 16.4133 24.8493 15.6667 23.9293 15.6667H7.92933Z" fill="#E9EBED"/>
</svg>
