<svg width="20" height="20" viewBox="0 0 20 20" fill="none" xmlns="http://www.w3.org/2000/svg">
<path fill-rule="evenodd" clip-rule="evenodd" d="M4.16667 1.04169C3.55888 1.04169 2.97598 1.28313 2.54621 1.7129C2.11644 2.14267 1.875 2.72557 1.875 3.33335C1.875 3.94114 2.11644 4.52404 2.54621 4.95381C2.97598 5.38358 3.55888 5.62502 4.16667 5.62502C4.77445 5.62502 5.35735 5.38358 5.78712 4.95381C6.21689 4.52404 6.45833 3.94114 6.45833 3.33335C6.45833 2.72557 6.21689 2.14267 5.78712 1.7129C5.35735 1.28313 4.77445 1.04169 4.16667 1.04169ZM3.125 3.33335C3.125 3.05709 3.23475 2.79213 3.4301 2.59678C3.62545 2.40143 3.8904 2.29169 4.16667 2.29169C4.44293 2.29169 4.70789 2.40143 4.90324 2.59678C5.09859 2.79213 5.20833 3.05709 5.20833 3.33335C5.20833 3.60962 5.09859 3.87457 4.90324 4.06992C4.70789 4.26527 4.44293 4.37502 4.16667 4.37502C3.8904 4.37502 3.62545 4.26527 3.4301 4.06992C3.23475 3.87457 3.125 3.60962 3.125 3.33335ZM1.875 6.66669C1.875 6.50093 1.94085 6.34196 2.05806 6.22475C2.17527 6.10754 2.33424 6.04169 2.5 6.04169H5.83333C5.99909 6.04169 6.15807 6.10754 6.27528 6.22475C6.39249 6.34196 6.45833 6.50093 6.45833 6.66669V17.5C6.45833 17.6658 6.39249 17.8248 6.27528 17.942C6.15807 18.0592 5.99909 18.125 5.83333 18.125H2.5C2.33424 18.125 2.17527 18.0592 2.05806 17.942C1.94085 17.8248 1.875 17.6658 1.875 17.5V6.66669ZM3.125 7.29169V16.875H5.20833V7.29169H3.125ZM7.70833 6.66669C7.70833 6.50093 7.77418 6.34196 7.89139 6.22475C8.0086 6.10754 8.16757 6.04169 8.33333 6.04169H11.6667C11.8324 6.04169 11.9914 6.10754 12.1086 6.22475C12.2258 6.34196 12.2917 6.50093 12.2917 6.66669V7.02835L12.6542 6.87252C13.2792 6.60542 13.9423 6.4381 14.6192 6.37669C16.9317 6.16669 18.9583 7.98335 18.9583 10.3167V17.5C18.9583 17.6658 18.8925 17.8248 18.7753 17.942C18.6581 18.0592 18.4991 18.125 18.3333 18.125H15C14.8342 18.125 14.6753 18.0592 14.5581 17.942C14.4408 17.8248 14.375 17.6658 14.375 17.5V11.6667C14.375 11.3904 14.2653 11.1255 14.0699 10.9301C13.8746 10.7348 13.6096 10.625 13.3333 10.625C13.0571 10.625 12.7921 10.7348 12.5968 10.9301C12.4014 11.1255 12.2917 11.3904 12.2917 11.6667V17.5C12.2917 17.6658 12.2258 17.8248 12.1086 17.942C11.9914 18.0592 11.8324 18.125 11.6667 18.125H8.33333C8.16757 18.125 8.0086 18.0592 7.89139 17.942C7.77418 17.8248 7.70833 17.6658 7.70833 17.5V6.66669ZM8.95833 7.29169V16.875H11.0417V11.6667C11.0417 11.0589 11.2831 10.476 11.7129 10.0462C12.1427 9.61646 12.7255 9.37502 13.3333 9.37502C13.9411 9.37502 14.524 9.61646 14.9538 10.0462C15.3836 10.476 15.625 11.0589 15.625 11.6667V16.875H17.7083V10.3167C17.7083 8.73002 16.3242 7.47669 14.7333 7.62169C14.1868 7.67141 13.6514 7.80638 13.1467 8.02169L11.9133 8.55085C11.8182 8.59171 11.7144 8.6083 11.6113 8.59913C11.5082 8.58996 11.4089 8.55531 11.3225 8.4983C11.2361 8.44129 11.1652 8.36371 11.1162 8.27252C11.0671 8.18133 11.0415 8.07939 11.0417 7.97585V7.29169H8.95833Z" fill="currentColor"/>
</svg>
