<svg width="32" height="32" viewBox="0 0 32 32" fill="none" xmlns="http://www.w3.org/2000/svg">
<path fill-rule="evenodd" clip-rule="evenodd" d="M25 14L24.992 14.324L25 14.6667L24.992 14.9907L25 15.3333L24.992 15.66L25 16L24.784 25.4707C24.7593 26.557 24.3404 27.5974 23.6055 28.3978C22.8705 29.1983 21.8697 29.7042 20.7893 29.8213C17.6058 30.1661 14.3942 30.1661 11.2107 29.8213C10.1303 29.7042 9.12945 29.1983 8.39452 28.3978C7.65958 27.5974 7.24072 26.557 7.216 25.4707L7 16L7.008 15.6573L7 15.3333L7.008 14.992L7 14.6667L7.008 14.3253L7 14L7.21867 5.86933C7.22133 5.756 7.22933 5.644 7.24267 5.53333L7.24667 5.48667L7.25067 5.448C7.30644 4.87657 7.49995 4.3272 7.81461 3.84696C8.12928 3.36672 8.5557 2.96996 9.05733 2.69067C9.55773 2.38716 10.121 2.20242 10.704 2.15067C14.2272 1.82636 17.7728 1.82636 21.296 2.15067C21.8779 2.20242 22.4403 2.38668 22.94 2.68933C23.441 2.96783 23.8672 3.36349 24.182 3.8425C24.4969 4.32151 24.6911 4.86962 24.748 5.44L24.7587 5.53867C24.772 5.648 24.7787 5.75867 24.7813 5.86933L25 14ZM22.7653 5.76L22.9747 14.9173L22.8053 21.224C22.787 21.9091 22.5181 22.5636 22.0494 23.0637C21.5808 23.5638 20.9451 23.8746 20.2627 23.9373C17.4269 24.1984 14.5731 24.1984 11.7373 23.9373C11.0549 23.8746 10.4192 23.5638 9.95055 23.0637C9.48194 22.5636 9.213 21.9091 9.19467 21.224L9.02533 14.9173L9.23467 5.76133C9.23467 5.74133 9.23467 5.72133 9.23733 5.70267C9.31733 5.16533 9.62667 4.70267 10.068 4.42267C10.2391 4.33332 10.4254 4.27679 10.6173 4.256C14.1947 3.86933 17.804 3.86933 21.3827 4.256C21.58 4.27733 21.7653 4.33467 21.932 4.42133C22.372 4.70267 22.684 5.16667 22.764 5.70267L22.7653 5.76ZM16 28.9333C16.5304 28.9333 17.0391 28.7226 17.4142 28.3475C17.7893 27.9725 18 27.4638 18 26.9333C18 26.4029 17.7893 25.8942 17.4142 25.5191C17.0391 25.144 16.5304 24.9333 16 24.9333C15.4696 24.9333 14.9609 25.144 14.5858 25.5191C14.2107 25.8942 14 26.4029 14 26.9333C14 27.4638 14.2107 27.9725 14.5858 28.3475C14.9609 28.7226 15.4696 28.9333 16 28.9333Z" fill="#E9EBED"/>
</svg>
