<svg width="32" height="32" viewBox="0 0 32 32" fill="none" xmlns="http://www.w3.org/2000/svg">
<path fill-rule="evenodd" clip-rule="evenodd" d="M16 5L25.6987 5.27333C26.5276 5.29687 27.3203 5.61861 27.9311 6.17948C28.5419 6.74036 28.93 7.50273 29.024 8.32667C29.4554 12.0966 29.4554 15.9034 29.024 19.6733C28.93 20.4973 28.5419 21.2596 27.9311 21.8205C27.3203 22.3814 26.5276 22.7031 25.6987 22.7267L18.3333 22.9347V25.668H22.6667C22.9319 25.668 23.1862 25.7734 23.3738 25.9609C23.5613 26.1484 23.6667 26.4028 23.6667 26.668C23.6667 26.9332 23.5613 27.1876 23.3738 27.3751C23.1862 27.5626 22.9319 27.668 22.6667 27.668H9.33333C9.06812 27.668 8.81376 27.5626 8.62623 27.3751C8.43869 27.1876 8.33333 26.9332 8.33333 26.668C8.33333 26.4028 8.43869 26.1484 8.62623 25.9609C8.81376 25.7734 9.06812 25.668 9.33333 25.668H13.6667V22.9333L6.30133 22.7253C5.47239 22.7018 4.67974 22.3801 4.0689 21.8192C3.45806 21.2583 3.07002 20.4959 2.976 19.672C2.54469 15.9021 2.54469 12.0953 2.976 8.32533C3.07002 7.5014 3.45806 6.73902 4.0689 6.17815C4.67974 5.61727 5.47239 5.29554 6.30133 5.272L16 5ZM16 7L6.35867 7.27333C5.63867 7.29333 5.04533 7.83867 4.96267 8.55333C4.54854 12.1726 4.54854 15.8274 4.96267 19.4467C5.04533 20.1613 5.63867 20.7067 6.35867 20.7267L15.9987 21L25.6413 20.7267C26.3613 20.7067 26.9547 20.1613 27.0373 19.4467C27.4514 15.8274 27.4514 12.1726 27.0373 8.55333C26.9977 8.20768 26.8347 7.88794 26.5782 7.65281C26.3218 7.41768 25.9891 7.28294 25.6413 7.27333L16 7Z" fill="#E9EBED"/>
</svg>
