<svg width="20" height="20" viewBox="0 0 20 20" fill="none" xmlns="http://www.w3.org/2000/svg">
<path d="M10 1.04166C10.1658 1.04166 10.3247 1.1075 10.4419 1.22471C10.5592 1.34192 10.625 1.5009 10.625 1.66666V2.49999C10.625 2.66575 10.5592 2.82472 10.4419 2.94193C10.3247 3.05914 10.1658 3.12499 10 3.12499C9.83424 3.12499 9.67527 3.05914 9.55806 2.94193C9.44085 2.82472 9.375 2.66575 9.375 2.49999V1.66666C9.375 1.5009 9.44085 1.34192 9.55806 1.22471C9.67527 1.1075 9.83424 1.04166 10 1.04166Z" fill="#CACDD2"/>
<path fill-rule="evenodd" clip-rule="evenodd" d="M5.20834 10C5.20834 8.72918 5.71318 7.5104 6.61179 6.61179C7.5104 5.71318 8.72918 5.20834 10 5.20834C11.2708 5.20834 12.4896 5.71318 13.3882 6.61179C14.2868 7.5104 14.7917 8.72918 14.7917 10C14.7917 11.2708 14.2868 12.4896 13.3882 13.3882C12.4896 14.2868 11.2708 14.7917 10 14.7917C8.72918 14.7917 7.5104 14.2868 6.61179 13.3882C5.71318 12.4896 5.20834 11.2708 5.20834 10ZM10 6.45834C9.53491 6.45834 9.07437 6.54995 8.64467 6.72794C8.21498 6.90592 7.82455 7.1668 7.49567 7.49567C7.1668 7.82455 6.90592 8.21498 6.72794 8.64467C6.54995 9.07437 6.45834 9.53491 6.45834 10C6.45834 10.4651 6.54995 10.9257 6.72794 11.3553C6.90592 11.785 7.1668 12.1755 7.49567 12.5043C7.82455 12.8332 8.21498 13.0941 8.64467 13.2721C9.07437 13.4501 9.53491 13.5417 10 13.5417C10.9393 13.5417 11.8402 13.1685 12.5043 12.5043C13.1685 11.8402 13.5417 10.9393 13.5417 10C13.5417 9.0607 13.1685 8.15986 12.5043 7.49567C11.8402 6.83148 10.9393 6.45834 10 6.45834Z" fill="#CACDD2"/>
<path d="M4.54999 3.66584C4.43217 3.55194 4.27432 3.48886 4.11045 3.49021C3.94657 3.49156 3.78978 3.55721 3.67385 3.67304C3.55791 3.78886 3.49211 3.94559 3.49061 4.10946C3.48911 4.27334 3.55203 4.43124 3.66582 4.54917L4.25499 5.13834C4.31221 5.19975 4.38121 5.249 4.45787 5.28316C4.53454 5.31732 4.6173 5.33569 4.70122 5.33717C4.78514 5.33865 4.8685 5.32321 4.94632 5.29178C5.02414 5.26034 5.09484 5.21356 5.15419 5.15421C5.21354 5.09486 5.26032 5.02416 5.29176 4.94634C5.32319 4.86852 5.33863 4.78516 5.33715 4.70124C5.33567 4.61732 5.3173 4.53456 5.28314 4.45789C5.24898 4.38123 5.19973 4.31223 5.13832 4.25501L4.54999 3.66584ZM18.9583 10C18.9583 10.1658 18.8925 10.3247 18.7753 10.4419C18.6581 10.5592 18.4991 10.625 18.3333 10.625H17.5C17.3342 10.625 17.1753 10.5592 17.058 10.4419C16.9408 10.3247 16.875 10.1658 16.875 10C16.875 9.83425 16.9408 9.67528 17.058 9.55807C17.1753 9.44086 17.3342 9.37501 17.5 9.37501H18.3333C18.4991 9.37501 18.6581 9.44086 18.7753 9.55807C18.8925 9.67528 18.9583 9.83425 18.9583 10ZM16.3342 4.55001C16.3939 4.49238 16.4415 4.42344 16.4743 4.3472C16.5071 4.27096 16.5244 4.18896 16.5251 4.10597C16.5259 4.02299 16.5101 3.94068 16.4787 3.86386C16.4474 3.78703 16.401 3.71723 16.3423 3.65852C16.2837 3.59981 16.2139 3.55337 16.1371 3.5219C16.0603 3.49044 15.978 3.47459 15.895 3.47527C15.812 3.47595 15.73 3.49316 15.6538 3.52587C15.5775 3.55859 15.5085 3.60617 15.4508 3.66584L14.8617 4.25501C14.8003 4.31223 14.751 4.38123 14.7168 4.45789C14.6827 4.53456 14.6643 4.61732 14.6628 4.70124C14.6613 4.78516 14.6768 4.86852 14.7082 4.94634C14.7397 5.02416 14.7864 5.09486 14.8458 5.15421C14.9051 5.21356 14.9758 5.26034 15.0537 5.29178C15.1315 5.32321 15.2148 5.33865 15.2988 5.33717C15.3827 5.33569 15.4654 5.31732 15.5421 5.28316C15.6188 5.249 15.6878 5.19975 15.745 5.13834L16.3342 4.55001ZM9.99999 16.875C10.1657 16.875 10.3247 16.9409 10.4419 17.0581C10.5591 17.1753 10.625 17.3342 10.625 17.5V18.3333C10.625 18.4991 10.5591 18.6581 10.4419 18.7753C10.3247 18.8925 10.1657 18.9583 9.99999 18.9583C9.83423 18.9583 9.67526 18.8925 9.55805 18.7753C9.44084 18.6581 9.37499 18.4991 9.37499 18.3333V17.5C9.37499 17.3342 9.44084 17.1753 9.55805 17.0581C9.67526 16.9409 9.83423 16.875 9.99999 16.875ZM15.745 14.8617C15.6878 14.8003 15.6188 14.751 15.5421 14.7169C15.4654 14.6827 15.3827 14.6643 15.2988 14.6628C15.2148 14.6614 15.1315 14.6768 15.0537 14.7082C14.9758 14.7397 14.9051 14.7865 14.8458 14.8458C14.7864 14.9052 14.7397 14.9759 14.7082 15.0537C14.6768 15.1315 14.6613 15.2149 14.6628 15.2988C14.6643 15.3827 14.6827 15.4655 14.7168 15.5421C14.751 15.6188 14.8003 15.6878 14.8617 15.745L15.4508 16.3342C15.508 16.3956 15.577 16.4448 15.6537 16.479C15.7304 16.5132 15.8131 16.5315 15.8971 16.533C15.981 16.5345 16.0643 16.519 16.1422 16.4876C16.22 16.4562 16.2907 16.4094 16.35 16.35C16.4094 16.2907 16.4562 16.22 16.4876 16.1422C16.519 16.0644 16.5345 15.981 16.533 15.8971C16.5315 15.8132 16.5131 15.7304 16.479 15.6537C16.4448 15.5771 16.3956 15.5081 16.3342 15.4508L15.745 14.8617ZM3.12499 10C3.12499 10.1658 3.05914 10.3247 2.94193 10.4419C2.82472 10.5592 2.66575 10.625 2.49999 10.625H1.66666C1.5009 10.625 1.34192 10.5592 1.22471 10.4419C1.1075 10.3247 1.04166 10.1658 1.04166 10C1.04166 9.83425 1.1075 9.67528 1.22471 9.55807C1.34192 9.44086 1.5009 9.37501 1.66666 9.37501H2.49999C2.66575 9.37501 2.82472 9.44086 2.94193 9.55807C3.05914 9.67528 3.12499 9.83425 3.12499 10ZM5.13832 15.745C5.24872 15.6265 5.30883 15.4698 5.30597 15.3079C5.30311 15.146 5.23752 14.9915 5.12301 14.877C5.0085 14.7625 4.85401 14.6969 4.69209 14.694C4.53017 14.6912 4.37347 14.7513 4.25499 14.8617L3.66582 15.4508C3.55542 15.5693 3.49532 15.726 3.49818 15.8879C3.50103 16.0499 3.56663 16.2043 3.68114 16.3189C3.79565 16.4334 3.95014 16.499 4.11205 16.5018C4.27397 16.5047 4.43068 16.4446 4.54916 16.3342L5.13832 15.745Z" fill="#CACDD2"/>
</svg>
