<svg width="20" height="20" viewBox="0 0 20 20" fill="none" xmlns="http://www.w3.org/2000/svg">
<path d="M10 1.66669C8.90566 1.66669 7.82202 1.88224 6.81098 2.30102C5.79993 2.71981 4.88127 3.33364 4.10745 4.10746C2.54465 5.67027 1.66667 7.78988 1.66667 10C1.66667 13.6834 4.05834 16.8084 7.36667 17.9167C7.78334 17.9834 7.91667 17.725 7.91667 17.5V16.0917C5.60834 16.5917 5.11667 14.975 5.11667 14.975C4.73334 14.0084 4.19167 13.75 4.19167 13.75C3.43334 13.2334 4.25001 13.25 4.25001 13.25C5.08334 13.3084 5.52501 14.1084 5.52501 14.1084C6.25001 15.375 7.47501 15 7.95001 14.8C8.025 14.2584 8.24167 13.8917 8.47501 13.6834C6.62501 13.475 4.68334 12.7584 4.68334 9.58335C4.68334 8.65835 5.00001 7.91669 5.54167 7.32502C5.45834 7.11669 5.16667 6.25002 5.62501 5.12502C5.62501 5.12502 6.32501 4.90002 7.91667 5.97502C8.57501 5.79169 9.29167 5.70002 10 5.70002C10.7083 5.70002 11.425 5.79169 12.0833 5.97502C13.675 4.90002 14.375 5.12502 14.375 5.12502C14.8333 6.25002 14.5417 7.11669 14.4583 7.32502C15 7.91669 15.3167 8.65835 15.3167 9.58335C15.3167 12.7667 13.3667 13.4667 11.5083 13.675C11.8083 13.9334 12.0833 14.4417 12.0833 15.2167V17.5C12.0833 17.725 12.2167 17.9917 12.6417 17.9167C15.95 16.8 18.3333 13.6834 18.3333 10C18.3333 8.90567 18.1178 7.82204 17.699 6.81099C17.2802 5.79994 16.6664 4.88129 15.8926 4.10746C15.1187 3.33364 14.2001 2.71981 13.189 2.30102C12.178 1.88224 11.0944 1.66669 10 1.66669Z" fill="currentColor"/>
</svg>
